<svg width="512" height="512" viewBox="0 0 512 512" xmlns="http://www.w3.org/2000/svg">
  <defs>
    <linearGradient id="tomato" x1="92" y1="74" x2="420" y2="442" gradientUnits="userSpaceOnUse">
      <stop stop-color="#ff6b5d"/>
      <stop offset="0.48" stop-color="#f23f43"/>
      <stop offset="1" stop-color="#b91c3b"/>
    </linearGradient>
    <linearGradient id="leaf" x1="256" y1="50" x2="256" y2="172" gradientUnits="userSpaceOnUse">
      <stop stop-color="#4ade80"/>
      <stop offset="1" stop-color="#15803d"/>
    </linearGradient>
    <linearGradient id="face" x1="176" y1="148" x2="337" y2="382" gradientUnits="userSpaceOnUse">
      <stop stop-color="#fff" stop-opacity="0.98"/>
      <stop offset="1" stop-color="#dbeafe"/>
    </linearGradient>
  </defs>
  <path d="M256 84c-21-39-55-54-93-48 25 19 34 43 36 64-27-20-59-20-86 0 35 4 60 23 73 50-88 27-139 102-126 193 13 95 91 151 196 151s183-56 196-151c13-91-38-166-126-193 13-27 38-46 73-50-27-20-59-20-86 0 2-21 11-45 36-64-38-6-72 9-93 48Z" fill="url(#leaf)"/>
  <path d="M256 110c-109 0-192 72-192 183 0 118 78 189 192 189s192-71 192-189c0-111-83-183-192-183Z" fill="url(#tomato)"/>
  <path d="M256 145c-70 0-123 45-123 115 0 78 51 125 123 125s123-47 123-125c0-70-53-115-123-115Z" fill="url(#face)"/>
  <path d="M256 187v72l49 30" fill="none" stroke="#17325e" stroke-width="23" stroke-linecap="round" stroke-linejoin="round"/>
  <circle cx="256" cy="260" r="14" fill="#2563eb"/>
  <path d="M173 113c27-40 60-52 83-52 23 0 56 12 83 52" fill="none" stroke="#15803d" stroke-width="22" stroke-linecap="round"/>
</svg>
